<?xml version="1.0" standalone="no"?>
<!DOCTYPE svg PUBLIC "-//W3C//DTD SVG 20010904//EN"
 "http://www.w3.org/TR/2001/REC-SVG-20010904/DTD/svg10.dtd">
<svg version="1.0" xmlns="http://www.w3.org/2000/svg"
 width="512.000000pt" height="512.000000pt" viewBox="0 0 512.000000 512.000000"
 preserveAspectRatio="xMidYMid meet">
<metadata>
Created by potrace 1.11, written by Peter Selinger 2001-2013
</metadata>
<g transform="translate(0.000000,512.000000) scale(0.100000,-0.100000)"
fill="#000000" stroke="none">
<path d="M2405 5113 c-793 -62 -1467 -437 -1931 -1073 -247 -340 -423 -815
-461 -1250 -13 -148 -6 -541 11 -568 2 -4 7 -29 10 -57 6 -41 23 -132 41 -215
29 -133 112 -354 196 -527 150 -303 372 -586 644 -821 169 -145 434 -307 655
-401 152 -65 427 -143 586 -166 22 -4 50 -8 64 -10 136 -23 480 -26 635 -6
222 28 531 109 682 177 138 62 327 158 343 174 10 10 45 31 63 36 9 4 17 10
17 14 0 4 10 11 23 17 20 10 186 132 213 157 7 6 34 30 61 53 258 220 518 582
657 916 46 109 122 335 132 391 3 17 11 58 19 92 8 34 17 83 21 110 3 27 8 51
9 54 8 13 20 216 20 345 0 134 -10 319 -19 347 -3 7 -7 31 -10 53 -12 82 -18
113 -46 225 -73 288 -185 542 -347 789 -42 62 -81 121 -88 130 -273 340 -527
553 -869 730 -283 147 -542 226 -906 276 -51 7 -364 13 -425 8z"/>
</g>
</svg>
